<?xml version="1.0" standalone="no"?>
<!DOCTYPE svg PUBLIC "-//W3C//DTD SVG 20010904//EN"
 "http://www.w3.org/TR/2001/REC-SVG-20010904/DTD/svg10.dtd">
<svg version="1.0" xmlns="http://www.w3.org/2000/svg"
 width="514.000000pt" height="514.000000pt" viewBox="0 0 514.000000 514.000000"
 preserveAspectRatio="xMidYMid meet">
<metadata>
Created by potrace 1.14, written by Peter Selinger 2001-2017
</metadata>
<g transform="translate(0.000000,514.000000) scale(0.100000,-0.100000)"
fill="#000000" stroke="none">
<path d="M2320 5043 c-1 -49 -1 -159 0 -245 1 -136 -1 -158 -15 -159 -8 -1
-18 -2 -22 -3 -5 -2 -28 -6 -53 -10 -63 -10 -73 -12 -90 -18 -8 -3 -35 -11
-60 -17 -99 -26 -268 -101 -342 -153 -14 -10 -31 -18 -37 -18 -6 0 -11 -4 -11
-8 0 -4 -12 -15 -27 -25 -16 -9 -44 -30 -63 -48 -112 -100 -158 -149 -228
-249 -26 -36 -51 -68 -57 -72 -5 -4 -7 -8 -2 -8 6 0 -40 -97 -53 -110 -3 -3
-7 -12 -9 -20 -2 -8 -13 -40 -23 -70 -20 -59 -44 -155 -56 -223 -4 -23 -6
-112 -6 -197 1 -160 13 -239 55 -362 25 -74 98 -227 119 -248 3 -3 16 -21 30
-40 104 -148 256 -259 490 -354 36 -15 74 -31 85 -35 55 -24 289 -96 345 -107
14 -3 59 -14 101 -24 75 -19 200 -47 249 -56 59 -10 201 -48 281 -75 217 -72
314 -171 324 -329 9 -148 -68 -264 -239 -360 -132 -73 -463 -88 -701 -30 -55
14 -215 89 -215 102 0 4 -6 8 -13 8 -17 0 -137 128 -157 166 -8 16 -17 31 -21
34 -9 9 -47 95 -64 148 -18 53 -26 59 -68 43 -13 -5 -37 -11 -53 -14 -16 -3
-81 -17 -144 -31 -63 -15 -135 -31 -160 -37 -25 -6 -61 -14 -80 -19 -19 -5
-57 -14 -85 -20 -27 -6 -59 -13 -70 -15 -11 -3 -60 -14 -109 -24 -49 -11 -93
-24 -98 -29 -30 -30 106 -355 210 -502 63 -90 222 -246 313 -307 205 -139 441
-223 739 -267 l85 -12 2 -288 c1 -159 5 -291 7 -293 4 -4 399 -7 484 -4 l22 1
0 290 c0 224 3 291 13 294 6 2 55 9 107 16 52 6 113 16 135 22 22 5 58 14 80
19 130 33 353 119 363 142 2 4 8 7 14 7 25 0 182 115 255 186 187 184 309 399
368 649 22 90 24 119 21 280 -2 134 -7 195 -20 240 -10 33 -19 67 -21 75 -7
33 -48 128 -82 190 -66 122 -185 266 -294 356 -119 98 -332 198 -544 255 -38
11 -104 28 -145 40 -41 11 -86 22 -100 25 -14 3 -38 9 -55 14 -16 5 -100 23
-185 40 -365 74 -491 119 -576 207 -62 65 -83 127 -80 233 3 93 23 147 74 199
37 38 87 71 106 71 9 0 16 4 16 9 0 13 140 42 237 50 129 11 255 1 345 -25 75
-23 173 -71 208 -104 17 -15 30 -26 30 -24 0 5 41 -40 85 -91 14 -16 25 -35
25 -42 0 -6 4 -13 8 -15 8 -3 54 -98 66 -136 4 -13 13 -22 19 -20 28 7 254 81
272 88 11 5 38 14 60 21 22 6 49 15 60 20 46 18 328 109 339 109 7 0 21 6 31
14 18 13 18 15 0 62 -20 56 -76 176 -84 184 -3 3 -12 15 -18 28 -7 12 -19 32
-25 45 -7 12 -16 24 -19 27 -3 3 -20 27 -39 54 -30 45 -164 185 -220 230 -146
118 -387 224 -615 270 -11 3 -54 10 -95 16 -41 6 -85 14 -97 16 l-23 4 0 240
0 240 -255 0 -255 0 0 -87z"/>
</g>
</svg>
